<svg width="371" height="371" viewBox="0 0 371 371" fill="none" xmlns="http://www.w3.org/2000/svg">
<path d="M36.0066 251.905C33.7006 251.905 31.6657 251.506 29.9019 250.708C28.1381 249.917 26.7451 248.782 25.723 247.305C24.7071 245.822 24.1835 244.018 24.1524 241.892H30.2104C30.2727 243.357 30.8056 244.591 31.809 245.595C32.8124 246.598 34.1961 247.1 35.9599 247.1C37.4868 247.1 38.6991 246.732 39.5965 245.997C40.494 245.267 40.9428 244.289 40.9428 243.061C40.9428 241.777 40.5439 240.774 39.7461 240.051C38.9546 239.334 37.9013 238.751 36.5862 238.302C35.2712 237.854 33.8657 237.377 32.3699 236.872C29.9455 236.031 28.0976 234.953 26.8261 233.637C25.5547 232.322 24.919 230.571 24.919 228.383C24.8878 226.532 25.3303 224.94 26.2465 223.606C27.1564 222.279 28.403 221.247 29.986 220.512C31.5753 219.776 33.4014 219.409 35.4644 219.409C37.5585 219.409 39.4064 219.783 41.0082 220.53C42.61 221.278 43.8658 222.325 44.7757 223.672C45.6857 225.018 46.1718 226.62 46.2342 228.477H40.0827C40.0577 227.368 39.6339 226.389 38.8112 225.541C37.9885 224.688 36.8418 224.261 35.3709 224.261C34.1182 224.229 33.0649 224.535 32.211 225.177C31.3572 225.819 30.9302 226.754 30.9302 227.981C30.9302 229.029 31.2605 229.861 31.9212 230.478C32.5756 231.088 33.4731 231.603 34.6136 232.02C35.748 232.438 37.0474 232.886 38.5121 233.366C40.0702 233.909 41.4912 234.538 42.7751 235.255C44.0652 235.972 45.0998 236.922 45.8789 238.106C46.6517 239.284 47.0381 240.802 47.0381 242.659C47.0381 244.304 46.6206 245.828 45.7854 247.231C44.9503 248.639 43.71 249.77 42.0646 250.624C40.4192 251.478 38.3999 251.905 36.0066 251.905ZM62.7497 251.905C60.506 251.905 58.5147 251.425 56.7758 250.465C55.0432 249.505 53.6845 248.159 52.6998 246.427C51.7088 244.694 51.2133 242.69 51.2133 240.415C51.2133 238.109 51.6994 236.059 52.6717 234.264C53.644 232.469 54.9902 231.07 56.7104 230.066C58.4306 229.069 60.4592 228.57 62.7964 228.57C64.9778 228.57 66.9068 229.047 68.5833 230.001C70.2599 230.961 71.5687 232.269 72.5098 233.927C73.4509 235.591 73.9215 237.439 73.9215 239.471C73.9215 239.801 73.9152 240.144 73.9028 240.499C73.8841 240.861 73.8591 241.235 73.828 241.621H56.9161C57.0345 243.36 57.639 244.722 58.7297 245.707C59.8204 246.698 61.1448 247.193 62.7029 247.193C63.8684 247.193 64.8469 246.931 65.6385 246.408C66.4362 245.884 67.0283 245.202 67.4147 244.36H73.2483C72.8308 245.769 72.1358 247.05 71.1636 248.203C70.1913 249.35 68.9947 250.253 67.5736 250.914C66.1526 251.575 64.5446 251.905 62.7497 251.905ZM62.7964 233.235C61.3879 233.235 60.1445 233.631 59.0663 234.423C57.988 235.214 57.2994 236.417 57.0002 238.031H68.0878C68.0006 236.567 67.4615 235.401 66.4705 234.535C65.4858 233.669 64.2611 233.235 62.7964 233.235ZM89.5844 251.905C87.3407 251.905 85.3494 251.425 83.6105 250.465C81.8779 249.505 80.5192 248.159 79.5345 246.427C78.5435 244.694 78.048 242.69 78.048 240.415C78.048 238.109 78.5341 236.059 79.5064 234.264C80.4787 232.469 81.8249 231.07 83.5451 230.066C85.2653 229.069 87.2939 228.57 89.6311 228.57C91.8125 228.57 93.7415 229.047 95.418 230.001C97.0946 230.961 98.4034 232.269 99.3445 233.927C100.286 235.591 100.756 237.439 100.756 239.471C100.756 239.801 100.75 240.144 100.737 240.499C100.719 240.861 100.694 241.235 100.663 241.621H83.7508C83.8692 243.36 84.4737 244.722 85.5644 245.707C86.6551 246.698 87.9795 247.193 89.5376 247.193C90.7031 247.193 91.6816 246.931 92.4732 246.408C93.2709 245.884 93.863 245.202 94.2494 244.36H100.083C99.6655 245.769 98.9705 247.05 97.9983 248.203C97.026 249.35 95.8294 250.253 94.4083 250.914C92.9873 251.575 91.3793 251.905 89.5844 251.905ZM89.6311 233.235C88.2226 233.235 86.9792 233.631 85.901 234.423C84.8227 235.214 84.1341 236.417 83.8349 238.031H94.9225C94.8353 236.567 94.2962 235.401 93.3052 234.535C92.3205 233.669 91.0958 233.235 89.6311 233.235ZM115.83 251.905C113.736 251.905 111.866 251.394 110.221 250.372C108.575 249.356 107.276 247.966 106.322 246.202C105.363 244.438 104.883 242.435 104.883 240.191C104.883 237.947 105.363 235.95 106.322 234.198C107.276 232.447 108.575 231.07 110.221 230.066C111.866 229.069 113.736 228.57 115.83 228.57C117.507 228.57 118.974 228.882 120.233 229.505C121.486 230.135 122.502 231.02 123.281 232.16V219.053H129.031V251.363H123.907L123.281 248.175C122.564 249.166 121.614 250.035 120.43 250.783C119.252 251.531 117.719 251.905 115.83 251.905ZM117.045 246.875C118.903 246.875 120.42 246.255 121.598 245.015C122.782 243.775 123.375 242.182 123.375 240.238C123.375 238.293 122.782 236.698 121.598 235.451C120.42 234.211 118.903 233.591 117.045 233.591C115.219 233.591 113.708 234.205 112.511 235.432C111.315 236.66 110.716 238.246 110.716 240.191C110.716 242.135 111.315 243.734 112.511 244.987C113.708 246.246 115.219 246.875 117.045 246.875ZM149.22 251.905C146.048 251.905 143.324 251.222 141.049 249.858C138.781 248.499 137.032 246.601 135.805 244.164C134.577 241.721 133.963 238.901 133.963 235.704C133.963 232.5 134.577 229.674 135.805 227.224C137.032 224.769 138.781 222.852 141.049 221.475C143.324 220.097 146.048 219.409 149.22 219.409C152.991 219.409 156.079 220.344 158.485 222.213C160.897 224.083 162.402 226.71 163 230.094H156.671C156.278 228.387 155.446 227.047 154.175 226.074C152.904 225.102 151.221 224.616 149.127 224.616C146.229 224.616 143.957 225.604 142.311 227.579C140.666 229.555 139.843 232.263 139.843 235.704C139.843 239.144 140.666 241.843 142.311 243.8C143.957 245.763 146.229 246.744 149.127 246.744C151.221 246.744 152.904 246.286 154.175 245.37C155.446 244.46 156.278 243.198 156.671 241.584H163C162.402 244.812 160.897 247.34 158.485 249.166C156.079 250.992 152.991 251.905 149.22 251.905ZM178.609 251.905C176.459 251.905 174.524 251.409 172.803 250.418C171.083 249.434 169.721 248.066 168.718 246.314C167.715 244.563 167.213 242.537 167.213 240.238C167.213 237.932 167.721 235.903 168.737 234.152C169.759 232.4 171.13 231.032 172.85 230.048C174.57 229.063 176.505 228.57 178.656 228.57C180.781 228.57 182.704 229.063 184.424 230.048C186.144 231.032 187.506 232.4 188.509 234.152C189.513 235.903 190.014 237.932 190.014 240.238C190.014 242.537 189.513 244.563 188.509 246.314C187.506 248.066 186.138 249.434 184.405 250.418C182.666 251.409 180.734 251.905 178.609 251.905ZM178.609 246.922C180.105 246.922 181.407 246.361 182.517 245.239C183.626 244.117 184.181 242.45 184.181 240.238C184.181 238.019 183.626 236.349 182.517 235.227C181.407 234.105 180.12 233.544 178.656 233.544C177.129 233.544 175.82 234.105 174.729 235.227C173.638 236.349 173.093 238.019 173.093 240.238C173.093 242.45 173.638 244.117 174.729 245.239C175.82 246.361 177.113 246.922 178.609 246.922ZM205.354 251.905C203.26 251.905 201.39 251.394 199.745 250.372C198.099 249.356 196.8 247.966 195.846 246.202C194.886 244.438 194.406 242.435 194.406 240.191C194.406 237.947 194.886 235.95 195.846 234.198C196.8 232.447 198.099 231.07 199.745 230.066C201.39 229.069 203.26 228.57 205.354 228.57C207.03 228.57 208.498 228.882 209.757 229.505C211.01 230.135 212.026 231.02 212.805 232.16V219.053H218.554V251.363H213.431L212.805 248.175C212.088 249.166 211.138 250.035 209.953 250.783C208.776 251.531 207.242 251.905 205.354 251.905ZM206.569 246.875C208.426 246.875 209.944 246.255 211.122 245.015C212.306 243.775 212.898 242.182 212.898 240.238C212.898 238.293 212.306 236.698 211.122 235.451C209.944 234.211 208.426 233.591 206.569 233.591C204.743 233.591 203.232 234.205 202.035 235.432C200.838 236.66 200.24 238.246 200.24 240.191C200.24 242.135 200.838 243.734 202.035 244.987C203.232 246.246 204.743 246.875 206.569 246.875ZM235.201 251.905C232.957 251.905 230.966 251.425 229.227 250.465C227.494 249.505 226.136 248.159 225.151 246.427C224.16 244.694 223.664 242.69 223.664 240.415C223.664 238.109 224.151 236.059 225.123 234.264C226.095 232.469 227.441 231.07 229.161 230.066C230.882 229.069 232.91 228.57 235.247 228.57C237.429 228.57 239.358 229.047 241.034 230.001C242.711 230.961 244.02 232.269 244.961 233.927C245.902 235.591 246.373 237.439 246.373 239.471C246.373 239.801 246.366 240.144 246.354 240.499C246.335 240.861 246.31 241.235 246.279 241.621H229.367C229.486 243.36 230.09 244.722 231.181 245.707C232.271 246.698 233.596 247.193 235.154 247.193C236.319 247.193 237.298 246.931 238.09 246.408C238.887 245.884 239.479 245.202 239.866 244.36H245.699C245.282 245.769 244.587 247.05 243.615 248.203C242.642 249.35 241.446 250.253 240.025 250.914C238.604 251.575 236.996 251.905 235.201 251.905ZM235.247 233.235C233.839 233.235 232.596 233.631 231.517 234.423C230.439 235.214 229.75 236.417 229.451 238.031H240.539C240.452 236.567 239.913 235.401 238.922 234.535C237.937 233.669 236.712 233.235 235.247 233.235ZM267.779 251.363H262.03V219.951H273.66C276.171 219.951 278.25 220.368 279.895 221.204C281.541 222.045 282.765 223.198 283.569 224.663C284.38 226.127 284.785 227.773 284.785 229.599C284.785 231.331 284.395 232.924 283.616 234.376C282.837 235.828 281.625 236.997 279.979 237.882C278.334 238.761 276.227 239.2 273.66 239.2H267.779V251.363ZM267.779 224.616V234.535H273.295C275.302 234.535 276.745 234.092 277.624 233.207C278.509 232.329 278.951 231.126 278.951 229.599C278.951 228.041 278.509 226.822 277.624 225.943C276.745 225.058 275.302 224.616 273.295 224.616H267.779ZM303.993 251.905C300.851 251.905 298.106 251.216 295.756 249.839C293.407 248.461 291.568 246.554 290.241 244.117C288.907 241.681 288.24 238.86 288.24 235.657C288.24 232.453 288.907 229.633 290.241 227.196C291.568 224.759 293.407 222.852 295.756 221.475C298.106 220.097 300.851 219.409 303.993 219.409C307.103 219.409 309.839 220.097 312.201 221.475C314.563 222.852 316.405 224.759 317.726 227.196C319.041 229.633 319.699 232.453 319.699 235.657C319.699 238.86 319.041 241.681 317.726 244.117C316.405 246.554 314.563 248.461 312.201 249.839C309.839 251.216 307.103 251.905 303.993 251.905ZM303.993 246.744C306.984 246.744 309.368 245.757 311.145 243.781C312.927 241.805 313.818 239.097 313.818 235.657C313.818 232.216 312.927 229.508 311.145 227.533C309.368 225.557 306.984 224.569 303.993 224.569C301.001 224.569 298.608 225.557 296.813 227.533C295.018 229.508 294.12 232.216 294.12 235.657C294.12 239.097 295.018 241.805 296.813 243.781C298.608 245.757 301.001 246.744 303.993 246.744ZM335.496 251.905C333.19 251.905 331.155 251.506 329.391 250.708C327.628 249.917 326.235 248.782 325.213 247.305C324.197 245.822 323.673 244.018 323.642 241.892H329.7C329.762 243.357 330.295 244.591 331.299 245.595C332.302 246.598 333.686 247.1 335.449 247.1C336.976 247.1 338.189 246.732 339.086 245.997C339.984 245.267 340.432 244.289 340.432 243.061C340.432 241.777 340.033 240.774 339.236 240.051C338.444 239.334 337.391 238.751 336.076 238.302C334.761 237.854 333.355 237.377 331.859 236.872C329.435 236.031 327.587 234.953 326.316 233.637C325.044 232.322 324.409 230.571 324.409 228.383C324.377 226.532 324.82 224.94 325.736 223.606C326.646 222.279 327.892 221.247 329.476 220.512C331.065 219.776 332.891 219.409 334.954 219.409C337.048 219.409 338.896 219.783 340.498 220.53C342.1 221.278 343.355 222.325 344.265 223.672C345.175 225.018 345.661 226.62 345.724 228.477H339.572C339.547 227.368 339.123 226.389 338.301 225.541C337.478 224.688 336.331 224.261 334.86 224.261C333.608 224.229 332.554 224.535 331.701 225.177C330.847 225.819 330.42 226.754 330.42 227.981C330.42 229.029 330.75 229.861 331.411 230.478C332.065 231.088 332.963 231.603 334.103 232.02C335.238 232.438 336.537 232.886 338.002 233.366C339.56 233.909 340.981 234.538 342.265 235.255C343.555 235.972 344.589 236.922 345.368 238.106C346.141 239.284 346.528 240.802 346.528 242.659C346.528 244.304 346.11 245.828 345.275 247.231C344.44 248.639 343.2 249.77 341.554 250.624C339.909 251.478 337.889 251.905 335.496 251.905Z" fill="#00AA95"/>
<path d="M153.904 189.246L141.061 162.689C131.407 142.728 137.062 119.328 153.398 105.783C163.566 97.3507 173.268 88.3709 182.171 78.6121L184.434 76.1313L189.697 83.0845C196.191 91.664 201.146 100.787 204.073 110.031L153.904 189.246Z" fill="#00AA95"/>
<path d="M232.346 109.257L230.635 100.706C222.181 120.635 200.495 131.225 188.065 144.976C166.327 169.024 153.904 189.246 153.904 189.246H166.774C223.978 189.246 240.624 150.637 232.346 109.257Z" fill="#00CC76"/>
<path d="M230.635 100.706L227.517 101.954C219.835 105.029 212.004 107.693 204.073 110.031V110.031C199.343 111.426 194.577 112.705 189.785 113.887C169.182 118.97 153.903 137.574 153.903 159.746V189.246C153.904 189.246 207.395 155.487 230.635 100.706Z" fill="#A5E887"/>
</svg>
